# xmcd
#
# Track frame offsets: 
#        150
#        17067
#        32876
#        45235
#        57136
#        73987
#        87995
#        101301
#        114135
#        126822
#        137302
#        150238
#        164507
#
# Disc length: 2381 seconds
#
# Revision: 0
# Processed by: cddbd v1.5PL3 Copyright (c) Steve Scherf et al.
# Submitted via: ExactAudioCopy v0.95a5
#
DISCID=98094b0d
DTITLE=Bill And Maggie Anderson - Blessed Indeed
DYEAR=2002
DGENRE=Bluegrass
TTITLE0=Touch Of The Master's Hand
TTITLE1=Green Pastures
TTITLE2=Brush Arbor Meeting
TTITLE3=Your presence Is My Favorite Gift
TTITLE4=Family Bible
TTITLE5=He Cares
TTITLE6=Born Again
TTITLE7=Fill Me Lord
TTITLE8=Darkest Hour
TTITLE9=Where We'll Never Say Fairwell
TTITLE10=I Need Jesus
TTITLE11=Mary Did You Know
TTITLE12=He Whispers Sweet Peace
EXTD=
EXTT0=
EXTT1=
EXTT2=
EXTT3=
EXTT4=
EXTT5=
EXTT6=
EXTT7=
EXTT8=
EXTT9=
EXTT10=
EXTT11=
EXTT12=
PLAYORDER=
